<svg width="139" height="139" viewBox="0 0 139 139" fill="none" xmlns="http://www.w3.org/2000/svg">
<path d="M69.5119 42.0666C54.3302 42.0666 42.0846 54.3149 42.0846 69.5C42.0846 84.6851 54.3302 96.9334 69.5119 96.9334C84.6936 96.9334 96.9393 84.6851 96.9393 69.5C96.9393 54.3149 84.6936 42.0666 69.5119 42.0666ZM69.5119 87.3353C59.7011 87.3353 51.6806 79.3369 51.6806 69.5C51.6806 59.6631 59.6772 51.6647 69.5119 51.6647C79.3466 51.6647 87.3433 59.6631 87.3433 69.5C87.3433 79.3369 79.3228 87.3353 69.5119 87.3353ZM104.459 40.9444C104.459 44.5019 101.594 47.3431 98.0612 47.3431C94.5045 47.3431 91.6639 44.478 91.6639 40.9444C91.6639 37.4107 94.5283 34.5456 98.0612 34.5456C101.594 34.5456 104.459 37.4107 104.459 40.9444ZM122.624 47.4386C122.218 38.8672 120.261 31.2746 113.983 25.0191C107.729 18.7636 100.138 16.8058 91.5684 16.376C82.7363 15.8747 56.2637 15.8747 47.4316 16.376C38.8859 16.7819 31.2951 18.7398 25.0171 24.9953C18.7392 31.2508 16.8056 38.8433 16.376 47.4148C15.8747 56.2489 15.8747 82.7273 16.376 91.5614C16.7818 100.133 18.7392 107.725 25.0171 113.981C31.2951 120.236 38.8621 122.194 47.4316 122.624C56.2637 123.125 82.7363 123.125 91.5684 122.624C100.138 122.218 107.729 120.26 113.983 113.981C120.237 107.725 122.194 100.133 122.624 91.5614C123.125 82.7273 123.125 56.2727 122.624 47.4386ZM111.214 101.04C109.352 105.72 105.748 109.325 101.045 111.211C94.0032 114.005 77.2938 113.36 69.5119 113.36C61.7301 113.36 44.9968 113.981 37.9789 111.211C33.3002 109.349 29.6958 105.744 27.81 101.04C25.0171 93.9967 25.6616 77.2836 25.6616 69.5C25.6616 61.7164 25.041 44.9794 27.81 37.9599C29.6719 33.2802 33.2764 29.6749 37.9789 27.7887C45.0207 24.9953 61.7301 25.6399 69.5119 25.6399C77.2938 25.6399 94.0271 25.0191 101.045 27.7887C105.724 29.6511 109.328 33.2563 111.214 37.9599C114.007 45.0033 113.362 61.7164 113.362 69.5C113.362 77.2836 114.007 94.0206 111.214 101.04Z" fill="#E12673"/>
</svg>
